<svg id="Capa_1" data-name="Capa 1" xmlns="http://www.w3.org/2000/svg" viewBox="0 0 458.11 403.23"><defs><style>.cls-1{fill:#fff;}.cls-2{fill:#d1c718;}</style></defs><title>sshoping</title><path class="cls-1" d="M741.76,575.42H661.27c-9,0-11.85-2-14.85-10.35q-22-61.35-44-122.76c-1.29-3.62-3.22-5.21-6.81-6.15-22.07-5.78-44.09-11.76-66.11-17.73-7.72-2.1-11.43-7.38-10.47-14.63,1-7.44,7.5-12.17,14.77-10.23,26.07,6.93,52.09,14.06,78.14,21.05,5.27,1.42,7.81,5.09,9.52,9.95Q642.16,483.24,663,541.84c3.89,10.9.92,9,12.58,9,45,.09,90-.06,135,.17,5,0,7.15-1.67,9-6.18,14.7-35.73,29.69-71.35,44.59-107,.38-.92.72-1.86,1.15-2.76,2.78-5.74,8.41-8.44,14-6.75A12.43,12.43,0,0,1,887.8,442a27.45,27.45,0,0,1-2,6.16c-16.46,39.33-33,78.61-49.36,118-2.77,6.66-7.2,9.36-14.22,9.33C795.42,575.34,768.59,575.42,741.76,575.42Z" transform="translate(-474.43 -393.13)"/><path class="cls-1" d="M681.77,682.13a45,45,0,0,1-42.3-32.25c-5.72-19.42,1.34-39.76,17.63-50.78,4.81-3.25,9.47-2.87,12.42,1s2,8.61-3,12.38c-9.72,7.33-14.48,16.92-12.6,29.11,1.71,11.12,8.3,18.8,18.63,22.92,12.66,5,27-.12,34.44-11.89a29,29,0,0,0-4.06-36.26c-1.67-1.61-3.59-3-5.4-4.43-4.1-3.32-4.95-8.09-2.11-11.85s7.37-4.4,11.57-1.55a45.12,45.12,0,0,1,19.69,29.54C732.26,656.26,710.43,682.57,681.77,682.13Z" transform="translate(-474.43 -393.13)"/><path class="cls-1" d="M748.19,636.35c0-15.5,6.95-27.46,19-36.67,5-3.79,9.74-3.48,12.82.48s2,8.7-3.18,12.71c-11.64,9-15.84,23-10.61,35.47,5.34,12.67,17.81,19.93,31.42,17.79,11.83-1.87,19.48-9.19,23-20.33s.95-21.38-7.64-29.7c-1.54-1.5-3.38-2.69-5.06-4.05-3.91-3.17-4.77-7.7-2.18-11.46,2.71-3.93,7.55-4.83,11.87-1.79,15.59,11,22.45,26.15,19.88,44.94-3.2,23.35-24.85,40.53-47.65,38.59C766,680.29,748.11,660.62,748.19,636.35Z" transform="translate(-474.43 -393.13)"/><path class="cls-1" d="M761.25,743.68h-33.9c0,4.77,0,9.37,0,14,0,4.17-.14,8.33-.06,12.5.06,3.37-1.91,5.44-4.77,5-1.82-.29-3.31-2.89-4.86-4.54-.26-.27-.09-1-.1-1.46q-.13-31.5-.27-63c0-3.06.81-5.91,4.44-6.13s6,1.57,5.94,5.64c-.09,7.17-.1,14.33-.13,21.5,0,1.81,0,3.63,0,5.91h33.15c.1-1.55.29-3.29.29-5,0-7.5-.12-15,0-22.49,0-3.16,1.43-5.67,5-5.55s5.38,2.08,5.36,5.8q-.23,32-.29,64c0,3.59-1.84,5.47-5,5.47-3.39,0-4.82-2.3-4.78-5.71C761.31,761.06,761.25,752.6,761.25,743.68Z" transform="translate(-474.43 -393.13)"/><path class="cls-1" d="M644.82,770.2c0,6.79-.12,13.2,0,19.59.1,3.72-1.07,6.54-5,6.57s-4.61-3.12-4.62-6.37c-.07-14.15-.45-28.3-.14-42.44a27.05,27.05,0,0,1,30.34-26.46,27.52,27.52,0,0,1,23.25,32.65c-3.15,15.34-19.62,25-35,20.4C650.91,773.3,648.32,771.78,644.82,770.2Zm17.4-5.11a16.81,16.81,0,1,0-17-16.5A16.76,16.76,0,0,0,662.22,765.09Z" transform="translate(-474.43 -393.13)"/><path class="cls-1" d="M785.27,754.66A16.19,16.19,0,0,0,805,764.8c1.44-.38,2.86-1.57,4.2-1.45,2.36.23,5.73.45,6.75,2,1.93,2.88.17,5.59-3,7.24-11.55,6.12-26.55,2.33-34.69-8.83a27.08,27.08,0,0,1,3.26-35.13c10.23-9.73,25.66-10.67,36-2.08,6.62,5.49,10.4,12.5,10.49,21.24.05,5.26-1.54,6.87-6.8,6.88C809.41,754.68,797.59,754.66,785.27,754.66Zm31.91-10.31c-2.92-8.83-9.17-13.27-17.58-12.89-7.41.33-13.3,5.31-15,12.89Z" transform="translate(-474.43 -393.13)"/><path class="cls-1" d="M889.84,754.66a16.21,16.21,0,0,0,20.1,10c1.43-.42,2.88-1.67,4.16-1.48,2.33.34,4.55,1.48,6.81,2.29-.94,2.24-1.26,5.64-2.92,6.53a26.69,26.69,0,0,1-23.57,1.27c-12.36-5.1-19.16-19.43-15.67-32.64,3.38-12.77,16.65-21.4,30.33-19.74,12.84,1.56,23.19,13.21,23.45,26.4.12,5.74-1.43,7.32-7.31,7.33C913.59,754.67,902,754.66,889.84,754.66ZM889,744.1h33c-3.87-9-9.52-13-17.67-12.65C897.06,731.74,891.64,736.11,889,744.1Z" transform="translate(-474.43 -393.13)"/><path class="cls-1" d="M532.32,723.91c15.73-6.29,27.07-4,34.56,7.42A27.39,27.39,0,0,1,571,743.85c.6,8.45,0,17,.12,25.49,0,3.71-1.5,5.95-5.09,5.93s-4.65-2.66-4.66-5.88c0-7.67,0-15.33-.14-23-.13-9.17-6.23-15.66-14.62-15.66-8.07,0-14.2,6.39-14.44,15.38-.2,7.66-.22,15.33-.12,23,0,3.59-1.26,6.07-4.92,6.16-3.87.09-4.88-2.77-4.9-6.13q-.18-31-.36-62c0-3.56.63-7.09,5.16-7s5.48,3.32,5.33,7.34C532.16,712.8,532.32,718.13,532.32,723.91Z" transform="translate(-474.43 -393.13)"/><path class="cls-1" d="M629.94,748.14a27.34,27.34,0,0,1-27.38,27.29c-14.62.08-27-12.28-27.08-27.07a27.23,27.23,0,1,1,54.46-.22Zm-10.34.4a16.72,16.72,0,0,0-17.16-16.92,16.93,16.93,0,1,0,17.16,16.92Z" transform="translate(-474.43 -393.13)"/><path class="cls-1" d="M494.14,699.77c9.49,0,14.8,2.67,18.45,7.77a7.66,7.66,0,0,1,.32,6.94c-1.53,2.5-4.57,2.23-7,.2-.64-.54-1.26-1.09-1.85-1.67-3.39-3.26-7.38-4.06-11.46-1.93a9.28,9.28,0,0,0-5.2,10c.65,4.93,3.93,7.76,8.55,8.51A24.77,24.77,0,0,1,511.38,738c8.41,9.82,7.48,23.51-2,31.75a23.36,23.36,0,0,1-32.44-1.93c-2.46-2.64-3.75-5.45-.76-8.24s5.47-.81,7.8,1.4c6.8,6.43,14.75,6.47,20,.13,6.09-7.32,2.78-17.51-6.59-20.83-4.48-1.59-9.29-3-13.05-5.71-7-5.1-9.13-13.95-6.3-22C480.67,705.18,488.78,699.75,494.14,699.77Z" transform="translate(-474.43 -393.13)"/><path class="cls-1" d="M848.33,724.19c6.5-4.38,14.81-5,23.52-2.11,3.45,1.14,5.52,3.36,4.24,7.14-1.22,3.61-3.94,3.68-7.31,2.82-13.58-3.46-22.63,3.61-22.75,17.57-.06,6.49-.19,13-.09,19.46,0,3.54-1.23,6-4.88,6.2-4,.21-4.91-2.76-5-6q-.29-20.7-.45-41.41c0-3.06.29-6.72,4-7C842,720.66,844.6,722.65,848.33,724.19Z" transform="translate(-474.43 -393.13)"/><path class="cls-2" d="M827.32,455.17c0-4.47-4.5-8.13-10-8.13H658.65c-5.5,0-10,3.66-10,8.13s4.5,8.12,10,8.12H817.32C822.82,463.29,827.32,459.64,827.32,455.17Z" transform="translate(-474.43 -393.13)"/><path class="cls-2" d="M806.67,510c0-4.21-4.5-7.66-10-7.66H691.32c-5.5,0-10,3.45-10,7.66s4.5,7.67,10,7.67H796.67C802.17,517.71,806.67,514.26,806.67,510Z" transform="translate(-474.43 -393.13)"/><rect class="cls-2" x="203.05" y="193.91" width="12.08" height="52.44" rx="5.74" ry="5.74"/><rect class="cls-2" x="312.68" y="195.69" width="12.08" height="52.44" rx="5.74" ry="5.74"/></svg>